<svg fill="#ffffff" height="200px" width="200px" version="1.1" id="Layer_1" xmlns="http://www.w3.org/2000/svg" xmlns:xlink="http://www.w3.org/1999/xlink" viewBox="0 0 511.999 511.999" xml:space="preserve" transform="matrix(-1, 0, 0, 1, 0, 0)"><g id="SVGRepo_bgCarrier" stroke-width="0"></g><g id="SVGRepo_tracerCarrier" stroke-linecap="round" stroke-linejoin="round"></g><g id="SVGRepo_iconCarrier"> <g> <g> <g> <path d="M77.56,154.554c3.098,5.011,8.46,7.768,13.947,7.768c2.939,0,5.916-0.792,8.599-2.451 c7.694-4.757,10.076-14.852,5.318-22.546c-2.677-4.329-1.219-11.02,1.499-21.526c3.167-12.243,7.109-27.479-1.34-41.734 c-4.613-7.782-14.662-10.352-22.442-5.741c-7.783,4.613-10.352,14.662-5.74,22.443c1.503,2.536-0.547,10.459-2.194,16.826 C71.885,120.434,67.336,138.019,77.56,154.554z"></path> <path d="M123.298,154.554c3.098,5.011,8.46,7.769,13.947,7.769c2.939,0,5.916-0.791,8.599-2.449 c7.695-4.757,10.076-14.853,5.319-22.546c-2.677-4.329-1.219-11.021,1.499-21.526c3.167-12.243,7.109-27.48-1.341-41.736 c-4.613-7.782-14.662-10.351-22.443-5.739c-7.782,4.613-10.351,14.661-5.739,22.443c1.503,2.536-0.546,10.46-2.194,16.826 C117.624,120.434,113.075,138.019,123.298,154.554z"></path> <path d="M495.62,367.617h-37.793c-1.449-2.773-3.703-5.162-6.655-6.775L128.314,184.423c-7.941-4.339-17.892-1.421-22.229,6.521 c-4.338,7.939-1.419,17.891,6.519,22.228l282.643,154.445H179.791c2.739-2.928,4.427-6.85,4.427-11.175 c0-9.046-7.334-16.38-16.38-16.38h-31.026c-9.046,0-16.38,7.334-16.38,16.38c0,4.326,1.689,8.247,4.427,11.175h-19.72 c2.739-2.928,4.427-6.85,4.427-11.175c0-9.046-7.334-16.38-16.38-16.38H62.16c-9.046,0-16.38,7.334-16.38,16.38 c0,4.326,1.689,8.247,4.427,11.175H16.38c-9.046,0-16.38,7.334-16.38,16.381c0,34.17,27.799,61.969,61.969,61.969h388.061 c34.17,0,61.97-27.799,61.97-61.969C512,374.951,504.666,367.617,495.62,367.617z M450.03,413.205H61.969 c-10.039,0-18.912-5.091-24.171-12.827h436.404C468.942,408.114,460.069,413.205,450.03,413.205z"></path> <path d="M82.154,318.055c0,9.046,7.334,16.381,16.38,16.381h31.026c9.046,0,16.38-7.334,16.38-16.381 c0-9.046-7.334-16.38-16.38-16.38H98.534C89.488,301.674,82.154,309.008,82.154,318.055z"></path> </g> </g> </g> </g></svg>