<svg fill="#ffffff" height="200px" width="200px" version="1.1" id="Layer_1" xmlns="http://www.w3.org/2000/svg" xmlns:xlink="http://www.w3.org/1999/xlink" viewBox="0 0 512 512" xml:space="preserve"><g id="SVGRepo_bgCarrier" stroke-width="0"></g><g id="SVGRepo_tracerCarrier" stroke-linecap="round" stroke-linejoin="round"></g><g id="SVGRepo_iconCarrier"> <g> <g> <path d="M327.102,273.972l25.935-25.935l11.851,11.851c3.272,3.272,7.562,4.909,11.85,4.909s8.578-1.636,11.85-4.909 c6.545-6.545,6.545-17.156,0-23.7l-11.851-11.851L507.091,93.982c6.545-6.545,6.545-17.156,0-23.7L459.69,22.881 c-6.544-6.545-17.156-6.545-23.7,0c-6.628,6.628-123.568,123.568-130.354,130.354l-11.851-11.851 c-6.544-6.545-17.156-6.545-23.7,0s-6.545,17.156,0,23.7l11.851,11.851l-25.935,25.935l-25.936-25.935l11.851-11.851 c6.545-6.546,6.545-17.157,0-23.702c-6.544-6.545-17.156-6.545-23.7,0l-11.851,11.851C199.579,146.449,82.639,29.509,76.011,22.88 c-6.544-6.545-17.156-6.545-23.7,0L4.909,70.282c-6.545,6.545-6.545,17.156,0,23.7l130.354,130.354l-11.851,11.851 c-6.545,6.545-6.545,17.156,0,23.7c6.544,6.545,17.156,6.546,23.7,0l11.851-11.851l25.936,25.936L4.909,453.961 c-7.908,7.907-5.982,21.2,3.809,26.554c16.34,8.937,34.263,13.513,52.575,13.513c28.21,0,56.36-10.606,77.995-32.241 l116.713-116.713l116.713,116.713c21.655,21.655,49.814,32.241,77.995,32.241c18.311,0,36.236-4.577,52.575-13.513 c9.81-5.364,11.701-18.662,3.809-26.554L327.102,273.972z M447.841,58.431l23.701,23.7l-23.701,23.7l-23.7-23.7L447.841,58.431z M400.44,105.833l23.7,23.7l-23.702,23.702l-23.7-23.7L400.44,105.833z M353.038,153.234l23.7,23.7l-23.7,23.7l-23.7-23.7 L353.038,153.234z M40.46,82.132l23.7-23.7l23.7,23.7l-23.7,23.7L40.46,82.132z M111.562,153.234l-23.702-23.702l23.7-23.7 l23.702,23.702L111.562,153.234z M158.963,200.635l-23.7-23.7l23.7-23.7l23.7,23.7L158.963,200.635z M182.665,224.335l23.7-23.7 l25.936,25.935L208.6,250.271L182.665,224.335z M115.586,438.086c-18.122,18.123-44.025,25.567-68.403,21.001l258.453-258.452 l23.701,23.7L115.586,438.086z M396.414,438.087L279.701,321.373l23.702-23.702l161.415,161.417 C440.439,463.657,414.537,456.208,396.414,438.087z"></path> </g> </g> </g></svg>